<svg width="37" height="15" viewBox="0 0 37 15" fill="none" xmlns="http://www.w3.org/2000/svg">
<path d="M3.8398 11.235H2.5948V0.884984H-0.000195295V0.734985H6.4498V0.884984H3.8398V11.235ZM10.0754 4.37999V4.06499C9.62535 4.24499 9.21535 4.60999 8.84535 5.15998C8.47535 5.69999 8.28035 6.20999 8.26035 6.68999V11.235H7.21035V3.73499H8.26035V6.11999C8.42035 5.53999 8.72535 4.99499 9.17535 4.48499C9.62535 3.96498 10.1354 3.69498 10.7054 3.67499H10.7654C10.9654 3.67499 11.1304 3.74499 11.2604 3.88499C11.4004 4.01499 11.4704 4.17998 11.4704 4.37999C11.4704 4.57999 11.4004 4.74499 11.2604 4.87498C11.1304 5.00499 10.9654 5.06999 10.7654 5.06999C10.5654 5.06999 10.4004 5.00499 10.2704 4.87498C10.1404 4.74499 10.0754 4.57999 10.0754 4.37999ZM14.131 11.235C13.721 11.235 13.406 11.145 13.186 10.965C12.976 10.785 12.866 10.605 12.856 10.425L12.841 10.17V3.73499H13.891V10.17C13.891 10.46 13.946 10.685 14.056 10.845C14.176 10.995 14.291 11.075 14.401 11.085L14.581 11.115H15.046V11.235H14.131ZM12.931 2.05498C12.811 1.93498 12.751 1.78499 12.751 1.60499C12.751 1.42498 12.811 1.27498 12.931 1.15498C13.051 1.02498 13.201 0.959984 13.381 0.959984C13.561 0.959984 13.711 1.02498 13.831 1.15498C13.961 1.27498 14.026 1.42498 14.026 1.60499C14.026 1.78499 13.961 1.93498 13.831 2.05498C13.711 2.17498 13.561 2.23498 13.381 2.23498C13.201 2.23498 13.051 2.17498 12.931 2.05498ZM25.0005 5.45999C25.0005 4.84999 24.9205 4.41999 24.7605 4.16999C24.6005 3.91999 24.2955 3.79499 23.8455 3.79499C23.2455 3.79499 22.7105 4.04499 22.2405 4.54499C21.7805 5.04499 21.5505 5.49499 21.5505 5.89499V11.235H20.5005V5.45999C20.5005 4.84999 20.4205 4.41999 20.2605 4.16999C20.1005 3.91999 19.7605 3.79499 19.2405 3.79499C18.7205 3.79499 18.2255 4.03499 17.7555 4.51499C17.2955 4.99499 17.0455 5.43999 17.0055 5.84998V11.235H15.9555V3.73499H17.0055V5.42998C17.1655 4.99999 17.4605 4.59999 17.8905 4.22999C18.3205 3.85999 18.8005 3.67499 19.3305 3.67499C19.8605 3.67499 20.2805 3.72499 20.5905 3.82499C20.9105 3.91499 21.1355 4.05999 21.2655 4.25998C21.3955 4.45998 21.4755 4.63499 21.5055 4.78499C21.5355 4.93499 21.5505 5.14499 21.5505 5.41499C21.7105 4.98499 22.0005 4.58999 22.4205 4.22999C22.8405 3.85999 23.2905 3.67499 23.7705 3.67499C24.2505 3.67499 24.6355 3.71499 24.9255 3.79499C25.2155 3.87498 25.4305 3.96498 25.5705 4.06499C25.7205 4.16499 25.8305 4.30998 25.9005 4.49998C25.9805 4.68999 26.0255 4.84499 26.0355 4.96499C26.0455 5.08499 26.0505 5.25499 26.0505 5.47499V10.17C26.0505 10.46 26.1055 10.685 26.2155 10.845C26.3355 10.995 26.4555 11.075 26.5755 11.085L26.7405 11.115H27.2055V11.235H26.2905C25.8805 11.235 25.5655 11.145 25.3455 10.965C25.1355 10.785 25.0255 10.605 25.0155 10.425L25.0005 10.17V5.45999ZM29.8575 11.235C28.9775 11.235 28.4225 11.005 28.1925 10.545C28.1425 10.445 28.1175 10.355 28.1175 10.275V-1.48416e-05H29.1675V10.17C29.1675 10.46 29.2225 10.685 29.3325 10.845C29.4525 10.995 29.5725 11.075 29.6925 11.085L29.8575 11.115H30.3225V11.235H29.8575ZM32.405 13.92C32.085 14.63 31.69 14.985 31.22 14.985C31.01 14.985 30.765 14.95 30.485 14.88V14.76C30.715 14.82 30.92 14.85 31.1 14.85C31.61 14.85 32 14.54 32.27 13.92L33.53 11.235H33.515L30.725 3.73499H31.775L34.1 9.98999L36.395 5.23499C36.515 5.02498 36.575 4.77498 36.575 4.48499C36.575 4.19498 36.495 3.97498 36.335 3.82499L36.425 3.73499C36.465 3.75499 36.515 3.81498 36.575 3.91498C36.645 4.01499 36.685 4.10499 36.695 4.18498C36.715 4.26499 36.725 4.33999 36.725 4.40999C36.725 4.67998 36.665 4.95498 36.545 5.23499L33.665 11.235L32.405 13.92Z" fill="black"/>
</svg>
